<svg xmlns="http://www.w3.org/2000/svg" viewBox="0 0 400 400" fill="none" stroke="#222" stroke-width="1.2">
  <!-- Outer ring -->
  <circle cx="200" cy="200" r="190" stroke-width="1.5"/>
  <circle cx="200" cy="200" r="175"/>
  <circle cx="200" cy="200" r="160"/>
  <!-- 12 outer petals -->
  <ellipse cx="200" cy="30" rx="12" ry="28" transform="rotate(0 200 200)"/>
  <ellipse cx="200" cy="30" rx="12" ry="28" transform="rotate(30 200 200)"/>
  <ellipse cx="200" cy="30" rx="12" ry="28" transform="rotate(60 200 200)"/>
  <ellipse cx="200" cy="30" rx="12" ry="28" transform="rotate(90 200 200)"/>
  <ellipse cx="200" cy="30" rx="12" ry="28" transform="rotate(120 200 200)"/>
  <ellipse cx="200" cy="30" rx="12" ry="28" transform="rotate(150 200 200)"/>
  <ellipse cx="200" cy="30" rx="12" ry="28" transform="rotate(180 200 200)"/>
  <ellipse cx="200" cy="30" rx="12" ry="28" transform="rotate(210 200 200)"/>
  <ellipse cx="200" cy="30" rx="12" ry="28" transform="rotate(240 200 200)"/>
  <ellipse cx="200" cy="30" rx="12" ry="28" transform="rotate(270 200 200)"/>
  <ellipse cx="200" cy="30" rx="12" ry="28" transform="rotate(300 200 200)"/>
  <ellipse cx="200" cy="30" rx="12" ry="28" transform="rotate(330 200 200)"/>
  <!-- Mid ring petals -->
  <circle cx="200" cy="200" r="120"/>
  <ellipse cx="200" cy="88" rx="10" ry="22" transform="rotate(0 200 200)"/>
  <ellipse cx="200" cy="88" rx="10" ry="22" transform="rotate(30 200 200)"/>
  <ellipse cx="200" cy="88" rx="10" ry="22" transform="rotate(60 200 200)"/>
  <ellipse cx="200" cy="88" rx="10" ry="22" transform="rotate(90 200 200)"/>
  <ellipse cx="200" cy="88" rx="10" ry="22" transform="rotate(120 200 200)"/>
  <ellipse cx="200" cy="88" rx="10" ry="22" transform="rotate(150 200 200)"/>
  <ellipse cx="200" cy="88" rx="10" ry="22" transform="rotate(180 200 200)"/>
  <ellipse cx="200" cy="88" rx="10" ry="22" transform="rotate(210 200 200)"/>
  <ellipse cx="200" cy="88" rx="10" ry="22" transform="rotate(240 200 200)"/>
  <ellipse cx="200" cy="88" rx="10" ry="22" transform="rotate(270 200 200)"/>
  <ellipse cx="200" cy="88" rx="10" ry="22" transform="rotate(300 200 200)"/>
  <ellipse cx="200" cy="88" rx="10" ry="22" transform="rotate(330 200 200)"/>
  <!-- Inner rings -->
  <circle cx="200" cy="200" r="80"/>
  <circle cx="200" cy="200" r="55"/>
  <!-- Inner petals -->
  <ellipse cx="200" cy="148" rx="8" ry="16" transform="rotate(0 200 200)"/>
  <ellipse cx="200" cy="148" rx="8" ry="16" transform="rotate(45 200 200)"/>
  <ellipse cx="200" cy="148" rx="8" ry="16" transform="rotate(90 200 200)"/>
  <ellipse cx="200" cy="148" rx="8" ry="16" transform="rotate(135 200 200)"/>
  <ellipse cx="200" cy="148" rx="8" ry="16" transform="rotate(180 200 200)"/>
  <ellipse cx="200" cy="148" rx="8" ry="16" transform="rotate(225 200 200)"/>
  <ellipse cx="200" cy="148" rx="8" ry="16" transform="rotate(270 200 200)"/>
  <ellipse cx="200" cy="148" rx="8" ry="16" transform="rotate(315 200 200)"/>
  <!-- Center -->
  <circle cx="200" cy="200" r="30"/>
  <circle cx="200" cy="200" r="18"/>
  <circle cx="200" cy="200" r="8"/>
  <!-- Decorative dots ring -->
  <circle cx="200" cy="170" r="3" transform="rotate(0 200 200)"/>
  <circle cx="200" cy="170" r="3" transform="rotate(45 200 200)"/>
  <circle cx="200" cy="170" r="3" transform="rotate(90 200 200)"/>
  <circle cx="200" cy="170" r="3" transform="rotate(135 200 200)"/>
  <circle cx="200" cy="170" r="3" transform="rotate(180 200 200)"/>
  <circle cx="200" cy="170" r="3" transform="rotate(225 200 200)"/>
  <circle cx="200" cy="170" r="3" transform="rotate(270 200 200)"/>
  <circle cx="200" cy="170" r="3" transform="rotate(315 200 200)"/>
</svg>
